<?xml version="1.0" encoding="utf-8"?>
<!-- Generator: Adobe Illustrator 26.4.1, SVG Export Plug-In . SVG Version: 6.00 Build 0)  -->
<svg version="1.1" id="Layer_1" xmlns="http://www.w3.org/2000/svg" xmlns:xlink="http://www.w3.org/1999/xlink" x="0px" y="0px"
	 viewBox="0 0 1080 1080" style="enable-background:new 0 0 1080 1080;" xml:space="preserve">
<style type="text/css">
	.st0{fill:#3575BB;}
	.st1{fill:#34A5DD;}
	.st2{fill:#313131;}
	.st3{stroke:#000000;stroke-miterlimit:10;}
</style>
<g>
	<path class="st0" d="M175.6,513.6c0,0,39.4,49.4,91.2,45.6c0,0,1.6,27.3-43.7,53.4c0,0,19.7-18.6,22.4-42.4
		C245.4,570.3,192.3,559.2,175.6,513.6z"/>
	<g>
		<path class="st1" d="M227.1,592.9c-11.5-7.7-20.5-18.9-25.6-32c-4.7-2.5-9.8-5.5-14.9-9.1c4.1,20.6,16,38.3,32.5,50
			C222.9,599.2,225.4,595.9,227.1,592.9z"/>
		<path class="st1" d="M345.4,536.1c0-44.3-35.9-80.2-80.2-80.2c-28.5,0-53.5,14.9-67.7,37.2c2.4,2.1,5.4,4.6,9.3,7.4
			c12-19.7,33.7-32.8,58.4-32.8c37.8,0,68.4,30.6,68.4,68.4c0,28.9-18,53.7-43.4,63.6c-4.2,5.8-9.7,11.7-13.8,15.7
			C315.4,610,345.4,576.6,345.4,536.1z"/>
	</g>
	<g>
		<path class="st0" d="M212.3,515.6c-7.7-4.8-29.8-21.7-29.8-21.7c23.5,55.3,99.3,55,99.3,55c-3.5,58.8-67.2,78.5-67.2,78.5
			c68-8.6,91.5-68.3,91.5-91.4c0,0,0,0,0-0.1C295.8,537.2,253.9,541.7,212.3,515.6z"/>
		<path class="st0" d="M320.2,508.9c-39.6-10.1-57.1,6.4-63.7,16.4c9.3,1.3,28.3,3.2,50.6,1.6c2.8-13,11.1-16.9,13.2-17.7
			C320.4,509.1,320.3,508.9,320.2,508.9z"/>
		<path class="st2" d="M309.5,535.7L309.5,535.7C309.6,535.7,309.6,535.7,309.5,535.7z"/>
	</g>
	<g>
		<rect x="363.3" y="465.6" width="23" height="119"/>
		<polygon points="529.8,550.8 503.9,474.2 501,465.6 483.8,465.6 480.9,474.2 453.3,556 422.7,465.6 399.7,465.6 439.9,584.6 
			443.6,584.6 462.9,584.6 466.6,584.6 492.4,508.2 518.2,584.6 518.4,584.6 541.3,584.6 541.4,584.6 581.6,465.6 558.6,465.6 		"/>
		<polygon points="594.4,465.6 594.4,488.7 594.4,513.6 594.4,536.6 594.4,561.6 594.4,584.6 617.4,584.6 682.1,584.6 682.1,561.6 
			617.4,561.6 617.4,536.6 675.8,536.6 675.8,513.6 617.4,513.6 617.4,488.7 682.1,488.7 682.1,465.6 617.4,465.6 		"/>
		<rect x="800.5" y="465.6" width="87.7" height="23"/>
		<rect x="800.5" y="513.6" width="87.7" height="23"/>
		<rect x="800.5" y="561.6" width="87.7" height="23"/>
		<polygon points="789.1,465.6 766.1,465.6 746,494.7 757.8,510.8 		"/>
		<polygon points="749.6,522.6 738.1,506 738.1,506 710.2,465.6 687.2,465.6 726.6,522.6 683.8,584.6 706.8,584.6 738.1,539.3 
			769.5,584.6 792.5,584.6 749.6,522.6 		"/>
	</g>
	<g>
		<path class="st3" d="M363.3,634.5v-19.7h2.3v19.7H363.3z"/>
		<path class="st3" d="M386.8,634.5h-2.7L373.2,618h-0.1c0.1,1.9,0.2,3.7,0.2,5.3v11.2h-2.2v-19.7h2.6l10.9,16.4h0.1
			c0-0.2-0.1-1-0.1-2.3c-0.1-1.3-0.1-2.3-0.1-2.8v-11.3h2.2V634.5z"/>
		<path class="st3" d="M398.4,634.5h-2.3v-17.6h-6.3v-2h15v2h-6.3V634.5z"/>
		<path class="st3" d="M419,634.5h-11.2v-19.7H419v2h-8.8v6.3h8.3v2h-8.3v7.2h8.8V634.5z"/>
		<path class="st3" d="M423.4,634.5v-19.7h2.3v17.6h8.8v2.1H423.4z"/>
		<path class="st3" d="M438,634.5v-19.7h2.3v17.6h8.8v2.1H438z"/>
		<path class="st3" d="M452.5,634.5v-19.7h2.3v19.7H452.5z"/>
		<path class="st3" d="M469.2,624.2h6.8v9.6c-1.1,0.3-2.1,0.6-3.2,0.8s-2.4,0.3-3.8,0.3c-3,0-5.4-0.9-7.1-2.7
			c-1.7-1.8-2.5-4.3-2.5-7.4c0-2,0.4-3.8,1.3-5.4c0.8-1.5,2-2.7,3.6-3.5c1.6-0.8,3.4-1.2,5.5-1.2c2.1,0,4.1,0.4,6,1.2l-0.9,2
			c-1.8-0.8-3.5-1.1-5.2-1.1c-2.4,0-4.3,0.7-5.7,2.1c-1.4,1.4-2.1,3.4-2.1,5.9c0,2.7,0.7,4.7,2,6c1.3,1.4,3.3,2.1,5.8,2.1
			c1.4,0,2.7-0.2,4.1-0.5v-6.1h-4.5V624.2z"/>
		<path class="st3" d="M491.9,634.5h-11.2v-19.7h11.2v2h-8.8v6.3h8.3v2h-8.3v7.2h8.8V634.5z"/>
		<path class="st3" d="M512,634.5h-2.7L498.4,618h-0.1c0.1,1.9,0.2,3.7,0.2,5.3v11.2h-2.2v-19.7h2.6l10.9,16.4h0.1
			c0-0.2-0.1-1-0.1-2.3c-0.1-1.3-0.1-2.3-0.1-2.8v-11.3h2.2V634.5z"/>
		<path class="st3" d="M523.7,634.5h-2.3v-17.6H515v-2h15v2h-6.3V634.5z"/>
		<path class="st3" d="M562.7,634.5h-2.3l-4-13.2c-0.2-0.6-0.4-1.3-0.6-2.2c-0.2-0.9-0.4-1.4-0.4-1.6c-0.2,1.2-0.5,2.5-1,3.9
			l-3.9,13.1h-2.3l-5.3-19.7h2.5l3.2,12.1c0.4,1.7,0.8,3.2,1,4.6c0.2-1.6,0.6-3.2,1.1-4.8l3.6-12h2.5l3.8,12.1
			c0.4,1.4,0.8,3,1.1,4.7c0.2-1.3,0.5-2.8,1-4.7l3.2-12.1h2.5L562.7,634.5z"/>
		<path class="st3" d="M588.6,624.6c0,3.1-0.8,5.6-2.4,7.4c-1.6,1.8-3.9,2.7-6.8,2.7c-3,0-5.2-0.9-6.8-2.7c-1.6-1.8-2.4-4.3-2.4-7.5
			c0-3.2,0.8-5.7,2.4-7.4c1.6-1.8,3.9-2.6,6.9-2.6c2.9,0,5.1,0.9,6.7,2.7C587.8,619,588.6,621.5,588.6,624.6z M572.6,624.6
			c0,2.7,0.6,4.7,1.7,6.1s2.8,2.1,5,2.1c2.2,0,3.9-0.7,5-2.1c1.1-1.4,1.7-3.4,1.7-6.1c0-2.6-0.6-4.7-1.7-6c-1.1-1.4-2.8-2.1-5-2.1
			c-2.2,0-3.9,0.7-5.1,2.1C573.2,620,572.6,622,572.6,624.6z"/>
		<path class="st3" d="M595.4,626.3v8.2h-2.3v-19.7h5.5c2.5,0,4.3,0.5,5.4,1.4c1.2,0.9,1.8,2.3,1.8,4.2c0,2.6-1.3,4.4-4,5.3l5.4,8.8
			h-2.8l-4.8-8.2H595.4z M595.4,624.4h3.2c1.6,0,2.8-0.3,3.6-1c0.8-0.6,1.2-1.6,1.2-2.9c0-1.3-0.4-2.2-1.2-2.8
			c-0.8-0.6-2-0.9-3.8-0.9h-3V624.4z"/>
		<path class="st3" d="M624.9,634.5h-2.7l-7.3-9.5l-2.1,1.8v7.7h-2.3v-19.7h2.3v9.8l9.1-9.8h2.8l-8.1,8.5L624.9,634.5z"/>
		<path class="st3" d="M630,634.5h-2.3v-19.7h11.2v2H630v7.2h8.3v2H630V634.5z"/>
		<path class="st3" d="M659.5,624.6c0,3.1-0.8,5.6-2.4,7.4c-1.6,1.8-3.9,2.7-6.8,2.7c-3,0-5.2-0.9-6.8-2.7c-1.6-1.8-2.4-4.3-2.4-7.5
			c0-3.2,0.8-5.7,2.4-7.4c1.6-1.8,3.9-2.6,6.9-2.6c2.9,0,5.1,0.9,6.7,2.7C658.7,619,659.5,621.5,659.5,624.6z M643.5,624.6
			c0,2.7,0.6,4.7,1.7,6.1s2.8,2.1,5,2.1c2.2,0,3.9-0.7,5-2.1c1.1-1.4,1.7-3.4,1.7-6.1c0-2.6-0.6-4.7-1.7-6c-1.1-1.4-2.8-2.1-5-2.1
			c-2.2,0-3.9,0.7-5.1,2.1C644.1,620,643.5,622,643.5,624.6z"/>
		<path class="st3" d="M666.3,626.3v8.2H664v-19.7h5.5c2.5,0,4.3,0.5,5.4,1.4c1.2,0.9,1.8,2.3,1.8,4.2c0,2.6-1.3,4.4-4,5.3l5.4,8.8
			h-2.8l-4.8-8.2H666.3z M666.3,624.4h3.2c1.6,0,2.8-0.3,3.6-1c0.8-0.6,1.2-1.6,1.2-2.9c0-1.3-0.4-2.2-1.2-2.8
			c-0.8-0.6-2-0.9-3.8-0.9h-3V624.4z"/>
		<path class="st3" d="M689.9,616.6c-2.2,0-3.9,0.7-5.2,2.2c-1.3,1.4-1.9,3.4-1.9,5.9c0,2.6,0.6,4.6,1.8,6c1.2,1.4,3,2.1,5.3,2.1
			c1.4,0,3-0.2,4.8-0.7v2c-1.4,0.5-3.1,0.8-5.1,0.8c-3,0-5.2-0.9-6.8-2.6c-1.6-1.8-2.4-4.3-2.4-7.5c0-2,0.4-3.8,1.2-5.3
			c0.8-1.5,1.9-2.7,3.3-3.5s3.2-1.2,5.1-1.2c2.1,0,3.9,0.4,5.5,1.1l-1,2C692.9,616.9,691.4,616.6,689.9,616.6z"/>
		<path class="st3" d="M710.2,634.5H699v-19.7h11.2v2h-8.8v6.3h8.3v2h-8.3v7.2h8.8V634.5z"/>
		<path class="st3" d="M738,634.5h-11.2v-19.7H738v2h-8.8v6.3h8.3v2h-8.3v7.2h8.8V634.5z"/>
		<path class="st3" d="M755.7,634.5h-2.6l-5.4-8.7l-5.5,8.7h-2.5l6.7-10.3l-6.2-9.4h2.6l5,7.8l5-7.8h2.5l-6.2,9.3L755.7,634.5z"/>
		<path class="st3" d="M764.8,634.5h-2.3v-17.6h-6.3v-2h15v2h-6.3V634.5z"/>
		<path class="st3" d="M785.3,634.5h-11.2v-19.7h11.2v2h-8.8v6.3h8.3v2h-8.3v7.2h8.8V634.5z"/>
		<path class="st3" d="M805.4,634.5h-2.7L791.8,618h-0.1c0.1,1.9,0.2,3.7,0.2,5.3v11.2h-2.2v-19.7h2.6l10.9,16.4h0.1
			c0-0.2-0.1-1-0.1-2.3c-0.1-1.3-0.1-2.3-0.1-2.8v-11.3h2.2V634.5z"/>
		<path class="st3" d="M822.2,629.3c0,1.7-0.6,3.1-1.9,4c-1.3,1-3,1.5-5.2,1.5c-2.4,0-4.2-0.3-5.5-0.9v-2.2c0.8,0.3,1.7,0.6,2.7,0.8
			c1,0.2,1.9,0.3,2.9,0.3c1.6,0,2.7-0.3,3.5-0.9c0.8-0.6,1.2-1.4,1.2-2.4c0-0.7-0.1-1.2-0.4-1.7c-0.3-0.4-0.7-0.8-1.4-1.2
			c-0.7-0.4-1.6-0.8-3-1.3c-1.9-0.7-3.2-1.4-4-2.3c-0.8-0.9-1.2-2.1-1.2-3.5c0-1.5,0.6-2.7,1.7-3.6c1.2-0.9,2.7-1.3,4.6-1.3
			c2,0,3.8,0.4,5.5,1.1l-0.7,2c-1.7-0.7-3.3-1-4.8-1c-1.2,0-2.2,0.3-2.9,0.8c-0.7,0.5-1,1.2-1,2.2c0,0.7,0.1,1.2,0.4,1.7
			s0.7,0.8,1.3,1.2c0.6,0.4,1.5,0.8,2.8,1.2c2.1,0.7,3.5,1.5,4.3,2.4C821.8,626.8,822.2,627.9,822.2,629.3z"/>
		<path class="st3" d="M888.2,629.3c0,1.7-0.6,3.1-1.9,4c-1.3,1-3,1.5-5.2,1.5c-2.4,0-4.2-0.3-5.5-0.9v-2.2c0.8,0.3,1.7,0.6,2.7,0.8
			c1,0.2,1.9,0.3,2.9,0.3c1.6,0,2.7-0.3,3.5-0.9c0.8-0.6,1.2-1.4,1.2-2.4c0-0.7-0.1-1.2-0.4-1.7c-0.3-0.4-0.7-0.8-1.4-1.2
			c-0.7-0.4-1.6-0.8-3-1.3c-1.9-0.7-3.2-1.4-4-2.3c-0.8-0.9-1.2-2.1-1.2-3.5c0-1.5,0.6-2.7,1.7-3.6c1.2-0.9,2.7-1.3,4.6-1.3
			c2,0,3.8,0.4,5.5,1.1l-0.7,2c-1.7-0.7-3.3-1-4.8-1c-1.2,0-2.2,0.3-2.9,0.8c-0.7,0.5-1,1.2-1,2.2c0,0.7,0.1,1.2,0.4,1.7
			s0.7,0.8,1.3,1.2c0.6,0.4,1.5,0.8,2.8,1.2c2.1,0.7,3.5,1.5,4.3,2.4C887.8,626.8,888.2,627.9,888.2,629.3z"/>
		<path class="st3" d="M826.3,634.5v-19.7h2.3v19.7H826.3z"/>
		<path class="st3" d="M851.5,624.6c0,3.1-0.8,5.6-2.4,7.4c-1.6,1.8-3.9,2.7-6.8,2.7c-3,0-5.2-0.9-6.8-2.7c-1.6-1.8-2.4-4.3-2.4-7.5
			c0-3.2,0.8-5.7,2.4-7.4c1.6-1.8,3.9-2.6,6.9-2.6c2.9,0,5.1,0.9,6.7,2.7C850.7,619,851.5,621.5,851.5,624.6z M835.5,624.6
			c0,2.7,0.6,4.7,1.7,6.1s2.8,2.1,5,2.1c2.2,0,3.9-0.7,5-2.1c1.1-1.4,1.7-3.4,1.7-6.1c0-2.6-0.6-4.7-1.7-6c-1.1-1.4-2.8-2.1-5-2.1
			c-2.2,0-3.9,0.7-5.1,2.1C836.1,620,835.5,622,835.5,624.6z"/>
		<path class="st3" d="M871.6,634.5h-2.7L858,618h-0.1c0.1,1.9,0.2,3.7,0.2,5.3v11.2H856v-19.7h2.6l10.9,16.4h0.1
			c0-0.2-0.1-1-0.1-2.3c-0.1-1.3-0.1-2.3-0.1-2.8v-11.3h2.2V634.5z"/>
	</g>
</g>
</svg>
