<?xml version="1.0" encoding="UTF-8"?>
<svg version="1.1" xmlns="http://www.w3.org/2000/svg" width="512" height="512">
<path d="M0 0 C4.81073609 1.49560201 9.29457495 3.40898984 13.85546875 5.51953125 C14.59775223 5.85997971 15.34003571 6.20042816 16.10481262 6.55119324 C18.46705419 7.63539443 20.82731351 8.72383349 23.1875 9.8125 C24.75312225 10.53219035 26.31887635 11.25159394 27.88476562 11.97070312 C30.89298657 13.35244065 33.90056822 14.73555503 36.90771484 16.11962891 C41.93082503 18.42993549 46.96324339 20.71960862 52 23 C51.39768601 26.56669804 50.43842499 29.57808629 48.93359375 32.86328125 C48.53076172 33.74951172 48.12792969 34.63574219 47.71289062 35.54882812 C47.29201172 36.46083984 46.87113281 37.37285156 46.4375 38.3125 C46.01275391 39.24384766 45.58800781 40.17519531 45.15039062 41.13476562 C44.10493657 43.4253672 43.05468244 45.71363659 42 48 C43.34964844 48.13341797 43.34964844 48.13341797 44.7265625 48.26953125 C50.44078102 49.09580327 55.87486114 50.98140024 61.375 52.6875 C71.18064999 55.69854036 81.01365109 58.59065545 90.890625 61.359375 C163.96921137 81.85911055 163.96921137 81.85911055 188 100 C188.52110352 100.3923584 189.04220703 100.7847168 189.57910156 101.18896484 C212.51311342 118.73273622 223.83301961 143.13521288 229 171 C229.66 178.59 230.32 186.18 231 194 C274.56 194.33 318.12 194.66 363 195 C363 224.37 363 253.74 363 284 C373.23 284 383.46 284 394 284 C394 278.39 394 272.78 394 267 C411.16 267 428.32 267 446 267 C446 308.91 446 350.82 446 394 C428.84 394 411.68 394 394 394 C393.67 389.05 393.34 384.1 393 379 C387.22830112 381.95664688 381.45765594 384.91534318 375.6875 387.875 C374.83510742 388.31206268 373.98271484 388.74912537 373.10449219 389.19943237 C363.87390714 393.93357785 354.65361212 398.68071091 345.5 403.5625 C316.65403708 418.82731531 289.25914425 431.76821261 256.40234375 421.921875 C230.25122448 412.63612998 205.39813793 398.85245248 180.68058777 386.3621521 C175.77271086 383.88256984 170.84849294 381.44480721 165.87329102 379.10229492 C160.42933627 375.89892523 157.05655685 370.99955924 155 365.125 C153.17210896 357.72260895 153.90457805 350.57742917 157.63671875 343.88671875 C161.71894175 338.23710926 166.34490184 334.93118703 173 333 C183.12857235 331.63118361 190.49731071 334.28905841 199.4375 338.8125 C200.66374252 339.41012322 201.89105832 340.00554873 203.11938477 340.59887695 C206.76236718 342.36787033 210.38142783 344.18159657 214 346 C215.98922677 346.98769761 217.97878412 347.97472985 219.96875 348.9609375 C223.54970452 350.74213442 227.12252696 352.53850105 230.69140625 354.34375 C239.38341622 358.72151331 248.19576948 362.85386917 257 367 C256.84015625 366.25363281 256.6803125 365.50726563 256.515625 364.73828125 C254.91181108 356.22105731 256.51069789 349.56400325 261.1875 342.375 C263.23646723 339.68591026 265.44811092 337.7783951 268.17578125 335.7890625 C268.89290283 335.2626416 269.61002441 334.7362207 270.34887695 334.19384766 C271.16618286 333.60289307 271.16618286 333.60289307 272 333 C271.41033699 332.99576806 270.82067398 332.99153612 270.2131424 332.98717594 C255.60051894 332.88207442 240.98792623 332.77323919 226.37535858 332.66066074 C219.30770497 332.60629247 212.24004679 332.55303053 205.17236328 332.50268555 C170.44170911 332.25460904 135.72236244 331.83922673 101 331 C101 319.45 101 307.9 101 296 C96.545 297.98 96.545 297.98 92 300 C87.5073078 301.12317305 83.59883642 301.69461592 79 301 C74.96662444 298.53515938 72.11889923 295.794235 70.47265625 291.26953125 C68.29679625 280.82180676 69.76729709 270.49358569 75.6015625 261.54296875 C77.01097645 259.63591812 78.45465572 257.79775051 80 256 C77.11200039 256 74.91680904 256.4546264 72.125 257.125 C69.12532238 257.72580626 67.21877338 258.03889304 64.1875 257.5 C60.27068428 254.81418351 57.5199136 251.5597408 56 247 C55.16538501 237.36772212 55.92912816 228.4917543 61.82421875 220.5390625 C63.48813253 218.61526766 65.18427307 216.78002443 67 215 C65.74896484 214.27296875 65.74896484 214.27296875 64.47265625 213.53125 C53.77960162 207.16196202 45.98832884 201.02394161 39.36303711 190.28149414 C28.72208479 173.13990399 12.02627573 162.9802546 -5 153 C-7.26998857 156.40498285 -8.92252127 159.98149446 -10.625 163.6875 C-10.94984375 164.38939453 -11.2746875 165.09128906 -11.609375 165.81445312 C-12.40848336 167.54193738 -13.20454043 169.27083254 -14 171 C-18.66880593 170.33253958 -22.71768079 168.50586723 -26.9765625 166.578125 C-27.74245697 166.2362616 -28.50835144 165.89439819 -29.29745483 165.54217529 C-31.74214363 164.44956549 -34.18357161 163.3498729 -36.625 162.25 C-38.24328278 161.52557952 -39.86177052 160.80161671 -41.48046875 160.078125 C-49.6671374 156.41522247 -57.84143066 152.72510545 -66 149 C-65.42517096 144.25031115 -63.99660709 140.30997787 -61.96484375 136.0234375 C-61.65500549 135.35376953 -61.34516724 134.68410156 -61.02593994 133.99414062 C-60.35488638 132.54533809 -59.68062856 131.09801626 -59.00350952 129.65203857 C-57.15918438 125.712487 -55.33887627 121.76183722 -53.515625 117.8125 C-53.13798508 116.99607025 -52.76034515 116.1796405 -52.3712616 115.33847046 C-48.88400546 107.78506928 -45.51031789 100.18379787 -42.15545654 92.57089233 C-35.63820819 77.78595616 -28.9190571 63.10280653 -22.09854126 48.45547485 C-15.26354424 33.77635064 -8.57020763 19.04037381 -2.00537109 4.23852539 C-1.36501387 2.81272759 -0.6989931 1.39798619 0 0 Z " fill="#2FCC63" transform="translate(66,43)"/>
<path d="M0 0 C4.81073609 1.49560201 9.29457495 3.40898984 13.85546875 5.51953125 C14.59775223 5.85997971 15.34003571 6.20042816 16.10481262 6.55119324 C18.46705419 7.63539443 20.82731351 8.72383349 23.1875 9.8125 C24.75312225 10.53219035 26.31887635 11.25159394 27.88476562 11.97070312 C30.89298657 13.35244065 33.90056822 14.73555503 36.90771484 16.11962891 C41.93082503 18.42993549 46.96324339 20.71960862 52 23 C51.39768601 26.56669804 50.43842499 29.57808629 48.93359375 32.86328125 C48.53076172 33.74951172 48.12792969 34.63574219 47.71289062 35.54882812 C47.29201172 36.46083984 46.87113281 37.37285156 46.4375 38.3125 C46.01275391 39.24384766 45.58800781 40.17519531 45.15039062 41.13476562 C44.10493657 43.4253672 43.05468244 45.71363659 42 48 C43.34964844 48.13341797 43.34964844 48.13341797 44.7265625 48.26953125 C50.44078102 49.09580327 55.87486114 50.98140024 61.375 52.6875 C71.18064999 55.69854036 81.01365109 58.59065545 90.890625 61.359375 C163.96921137 81.85911055 163.96921137 81.85911055 188 100 C188.52110352 100.3923584 189.04220703 100.7847168 189.57910156 101.18896484 C211.96581825 118.31407325 224.86576946 143.35840173 229 171 C230.97540604 187.42232879 230.97540604 187.42232879 231 195 C229.25699027 196.74300973 226.84304811 196.17006086 224.47045898 196.20532227 C223.28931015 196.22526749 222.10816132 196.24521271 220.89122009 196.26576233 C218.96313255 196.29083107 218.96313255 196.29083107 216.99609375 196.31640625 C215.68794205 196.33718735 214.37979034 196.35796844 213.03199768 196.37937927 C209.54844553 196.434663 206.0648334 196.48404431 202.58117676 196.53222656 C199.0286727 196.58239574 195.4762561 196.63810567 191.92382812 196.69335938 C184.94929454 196.80101791 177.97468202 196.90244567 171 197 C171.68253845 197.54165298 172.3650769 198.08330597 173.06829834 198.64137268 C173.96582825 199.35599167 174.86335815 200.07061066 175.78808594 200.80688477 C176.67687439 201.51353775 177.56566284 202.22019073 178.48138428 202.94825745 C181.56914746 205.46364519 184.45198783 208.10697538 187.25 210.9375 C187.75450684 211.44547119 188.25901367 211.95344238 188.77880859 212.47680664 C195.1117762 218.99507447 201.22540183 226.46793593 201.375 235.9375 C201.23166159 241.62887809 199.40489863 244.62929425 195.3515625 248.625 C190.58104461 252.95804682 186.39787092 255.27772717 179.8125 255.375 C178.95269531 255.40335938 178.09289062 255.43171875 177.20703125 255.4609375 C166.71038162 253.95228384 157.44855805 247.44403648 148.453125 242.22070312 C141.48089034 238.23103551 134.46475821 234.95411759 127 232 C126.19844482 231.64478271 125.39688965 231.28956543 124.57104492 230.92358398 C122.03516076 229.83642421 120.74902853 229.55504506 118 230 C114.28857736 232.32393478 111.02434831 234.88005656 107.72265625 237.7421875 C105 240 105 240 103 240 C103.01776489 240.66541306 103.03552979 241.33082611 103.05383301 242.0164032 C103.23083709 248.94279608 103.35148304 255.86854695 103.43945312 262.79663086 C103.47968254 265.38185723 103.53427474 267.96690162 103.60351562 270.55151367 C103.70058201 274.26787154 103.74593407 277.98182462 103.78125 281.69921875 C103.82254028 282.85459641 103.86383057 284.00997406 103.90637207 285.20036316 C103.9107495 293.02973318 103.9107495 293.02973318 101.28662109 295.8253479 C94.74318571 300.02620554 86.75899573 302.35676428 79 301 C74.96662444 298.53515938 72.11889923 295.794235 70.47265625 291.26953125 C68.29679625 280.82180676 69.76729709 270.49358569 75.6015625 261.54296875 C77.01097645 259.63591812 78.45465572 257.79775051 80 256 C77.11200039 256 74.91680904 256.4546264 72.125 257.125 C69.12532238 257.72580626 67.21877338 258.03889304 64.1875 257.5 C60.27068428 254.81418351 57.5199136 251.5597408 56 247 C55.16538501 237.36772212 55.92912816 228.4917543 61.82421875 220.5390625 C63.48813253 218.61526766 65.18427307 216.78002443 67 215 C65.74896484 214.27296875 65.74896484 214.27296875 64.47265625 213.53125 C53.77960162 207.16196202 45.98832884 201.02394161 39.36303711 190.28149414 C28.72208479 173.13990399 12.02627573 162.9802546 -5 153 C-7.26998857 156.40498285 -8.92252127 159.98149446 -10.625 163.6875 C-10.94984375 164.38939453 -11.2746875 165.09128906 -11.609375 165.81445312 C-12.40848336 167.54193738 -13.20454043 169.27083254 -14 171 C-18.66880593 170.33253958 -22.71768079 168.50586723 -26.9765625 166.578125 C-27.74245697 166.2362616 -28.50835144 165.89439819 -29.29745483 165.54217529 C-31.74214363 164.44956549 -34.18357161 163.3498729 -36.625 162.25 C-38.24328278 161.52557952 -39.86177052 160.80161671 -41.48046875 160.078125 C-49.6671374 156.41522247 -57.84143066 152.72510545 -66 149 C-65.42517096 144.25031115 -63.99660709 140.30997787 -61.96484375 136.0234375 C-61.65500549 135.35376953 -61.34516724 134.68410156 -61.02593994 133.99414062 C-60.35488638 132.54533809 -59.68062856 131.09801626 -59.00350952 129.65203857 C-57.15918438 125.712487 -55.33887627 121.76183722 -53.515625 117.8125 C-53.13798508 116.99607025 -52.76034515 116.1796405 -52.3712616 115.33847046 C-48.88400546 107.78506928 -45.51031789 100.18379787 -42.15545654 92.57089233 C-35.63820819 77.78595616 -28.9190571 63.10280653 -22.09854126 48.45547485 C-15.26354424 33.77635064 -8.57020763 19.04037381 -2.00537109 4.23852539 C-1.36501387 2.81272759 -0.6989931 1.39798619 0 0 Z " fill="#FECDBE" transform="translate(66,43)"/>
<path d="M0 0 C17.16 0 34.32 0 52 0 C52 41.91 52 83.82 52 127 C34.84 127 17.68 127 0 127 C-0.33 122.05 -0.66 117.1 -1 112 C-6.77169888 114.95664688 -12.54234406 117.91534318 -18.3125 120.875 C-19.59108887 121.53059402 -19.59108887 121.53059402 -20.89550781 122.19943237 C-30.12609286 126.93357785 -39.34638788 131.68071091 -48.5 136.5625 C-77.34596292 151.82731531 -104.74085575 164.76821261 -137.59765625 154.921875 C-163.74877552 145.63612998 -188.60186207 131.85245248 -213.31941223 119.3621521 C-218.22728914 116.88256984 -223.15150706 114.44480721 -228.12670898 112.10229492 C-233.57066373 108.89892523 -236.94344315 103.99955924 -239 98.125 C-240.82789104 90.72260895 -240.09542195 83.57742917 -236.36328125 76.88671875 C-232.28105825 71.23710926 -227.65509816 67.93118703 -221 66 C-210.87142765 64.63118361 -203.50268929 67.28905841 -194.5625 71.8125 C-193.33625748 72.41012322 -192.10894168 73.00554873 -190.88061523 73.59887695 C-187.23763282 75.36787033 -183.61857217 77.18159657 -180 79 C-178.01077323 79.98769761 -176.02121588 80.97472985 -174.03125 81.9609375 C-170.45029548 83.74213442 -166.87747304 85.53850105 -163.30859375 87.34375 C-154.61658378 91.72151331 -145.80423052 95.85386917 -137 100 C-137.15984375 99.25363281 -137.3196875 98.50726563 -137.484375 97.73828125 C-139.07201773 89.30693612 -137.48808092 82.69724976 -133 75.5 C-129.28758745 70.59828164 -124.01422586 67.43851706 -119 64 C-109.8344927 57.4977313 -101.00077836 50.59290958 -92.14794922 43.67480469 C-89.17101279 41.35361989 -86.1815271 39.04907598 -83.1875 36.75 C-82.16914063 35.96753906 -81.15078125 35.18507813 -80.1015625 34.37890625 C-77.90987012 32.69787268 -75.71712692 31.01826558 -73.5234375 29.33984375 C-72.94440674 28.89608398 -72.36537598 28.45232422 -71.76879883 27.99511719 C-70.17082651 26.77051571 -68.57178017 25.54731606 -66.97265625 24.32421875 C-63.95886741 22.10587138 -63.95886741 22.10587138 -61.64379883 19.38525391 C-56.83848271 15.40378776 -50.63376105 16.38855298 -44.7265625 16.51171875 C-42.80824112 16.52233086 -42.80824112 16.52233086 -40.85116577 16.53315735 C-37.46718587 16.5563537 -34.08492076 16.60119193 -30.70141602 16.65667725 C-27.24250024 16.70802212 -23.78340658 16.73070359 -20.32421875 16.75585938 C-13.54894752 16.81092371 -6.7747083 16.89719954 0 17 C0 11.39 0 5.78 0 0 Z " fill="#FECDBE" transform="translate(460,310)"/>
<path d="M0 0 C4.81073609 1.49560201 9.29457495 3.40898984 13.85546875 5.51953125 C14.59775223 5.85997971 15.34003571 6.20042816 16.10481262 6.55119324 C18.46705419 7.63539443 20.82731351 8.72383349 23.1875 9.8125 C24.75312225 10.53219035 26.31887635 11.25159394 27.88476562 11.97070312 C30.89298657 13.35244065 33.90056822 14.73555503 36.90771484 16.11962891 C41.93082503 18.42993549 46.96324339 20.71960862 52 23 C51.43142686 26.28600251 50.65790862 29.07815206 49.21484375 32.08203125 C48.84810547 32.85095703 48.48136719 33.61988281 48.10351562 34.41210938 C47.71873047 35.20423828 47.33394531 35.99636719 46.9375 36.8125 C46.40092773 37.93688477 46.40092773 37.93688477 45.85351562 39.08398438 C44.0018826 42.94287653 42.11520133 46.78203893 40.17700195 50.59814453 C35.6046744 59.61566082 31.3563808 68.73098519 27.30157471 77.99212646 C25.57937953 81.92357764 23.84291997 85.84870935 22.10546875 89.7734375 C21.75806641 90.55836578 21.41066406 91.34329407 21.05273438 92.15200806 C17.8233819 99.43084946 14.49380614 106.6596758 11.125 113.875 C10.33681885 115.56435669 10.33681885 115.56435669 9.53271484 117.2878418 C8.5134406 119.47147415 7.4939173 121.65499027 6.47412109 123.83837891 C4.11161439 128.90536496 1.76685381 133.98019411 -0.5625 139.0625 C-1.15297119 140.33746338 -1.15297119 140.33746338 -1.75537109 141.63818359 C-4.13495033 146.84719734 -6.17344476 152.11275466 -8.09155273 157.50805664 C-9.17189502 160.47152175 -10.41434037 163.33067247 -11.75 166.1875 C-12.17796875 167.10917969 -12.6059375 168.03085938 -13.046875 168.98046875 C-13.51867188 169.98013672 -13.51867188 169.98013672 -14 171 C-18.66880593 170.33253958 -22.71768079 168.50586723 -26.9765625 166.578125 C-27.74245697 166.2362616 -28.50835144 165.89439819 -29.29745483 165.54217529 C-31.74214363 164.44956549 -34.18357161 163.3498729 -36.625 162.25 C-38.24328278 161.52557952 -39.86177052 160.80161671 -41.48046875 160.078125 C-49.6671374 156.41522247 -57.84143066 152.72510545 -66 149 C-65.42517096 144.25031115 -63.99660709 140.30997787 -61.96484375 136.0234375 C-61.65500549 135.35376953 -61.34516724 134.68410156 -61.02593994 133.99414062 C-60.35488638 132.54533809 -59.68062856 131.09801626 -59.00350952 129.65203857 C-57.15918438 125.712487 -55.33887627 121.76183722 -53.515625 117.8125 C-53.13798508 116.99607025 -52.76034515 116.1796405 -52.3712616 115.33847046 C-48.88400546 107.78506928 -45.51031789 100.18379787 -42.15545654 92.57089233 C-35.63820819 77.78595616 -28.9190571 63.10280653 -22.09854126 48.45547485 C-15.26354424 33.77635064 -8.57020763 19.04037381 -2.00537109 4.23852539 C-1.36501387 2.81272759 -0.6989931 1.39798619 0 0 Z " fill="#23A7F1" transform="translate(66,43)"/>
<path d="M0 0 C17.16 0 34.32 0 52 0 C52 41.91 52 83.82 52 127 C34.84 127 17.68 127 0 127 C0 85.09 0 43.18 0 0 Z " fill="#E24242" transform="translate(460,310)"/>
<path d="M0 0 C9.0526772 0.01373324 18.10536018 0.01875597 27.15804529 0.02450979 C41.25290413 0.03367801 55.34772482 0.05366331 69.44258165 0.07202661 C69.44258165 29.44202661 69.44258165 58.81202661 69.44258165 89.07202661 C62.51258165 89.07202661 55.58258165 89.07202661 48.44258165 89.07202661 C48.44258165 66.96202661 48.44258165 44.85202661 48.44258165 22.07202661 C37.77687853 22.23444849 27.1111754 22.39687036 16.12226915 22.56421411 C9.35008594 22.63577973 2.57817829 22.70375671 -4.1941371 22.75562036 C-14.93516596 22.83854018 -25.67465194 22.93575177 -36.41435194 23.12817895 C-44.23799241 23.26829047 -52.06037584 23.35817232 -59.88523614 23.38926554 C-64.02434497 23.40742735 -68.15985989 23.44968747 -72.29780912 23.55224741 C-100.8453126 24.23300784 -100.8453126 24.23300784 -108.63834906 17.15364778 C-110.78617896 14.78721228 -112.6427606 12.33146081 -114.40558958 9.66855752 C-116.06783732 7.36454327 -118.11049908 5.86382812 -120.43241835 4.25952661 C-121.46366835 3.53765161 -122.49491835 2.81577661 -123.55741835 2.07202661 C-123.55741835 1.74202661 -123.55741835 1.41202661 -123.55741835 1.07202661 C-82.36700598 0.21533473 -41.1982092 -0.0636985 0 0 Z " fill="#28BF5B" transform="translate(359.55741834640503,237.92797338962555)"/>
<path d="M0 0 C0.58773193 0.17668213 1.17546387 0.35336426 1.78100586 0.53540039 C4.52031313 1.35813023 7.26007229 2.17933874 10 3 C10.92441895 3.2769873 11.84883789 3.55397461 12.80126953 3.83935547 C25.45646875 7.61777706 38.09535717 11.17710938 51 14 C47.91363368 17.16284266 44.79846521 20.09593288 41.3125 22.8125 C40.54550781 23.41707031 39.77851563 24.02164062 38.98828125 24.64453125 C37 26 37 26 35 26 C35.01776489 26.66541306 35.03552979 27.33082611 35.05383301 28.0164032 C35.23083709 34.94279608 35.35148304 41.86854695 35.43945312 48.79663086 C35.47968254 51.38185723 35.53427474 53.96690162 35.60351562 56.55151367 C35.70058201 60.26787154 35.74593407 63.98182462 35.78125 67.69921875 C35.82254028 68.85459641 35.86383057 70.00997406 35.90637207 71.20036316 C35.9107495 79.02973318 35.9107495 79.02973318 33.28662109 81.8253479 C26.74318571 86.02620554 18.75899573 88.35676428 11 87 C6.96662444 84.53515938 4.11889923 81.794235 2.47265625 77.26953125 C0.29679625 66.82180676 1.76729709 56.49358569 7.6015625 47.54296875 C9.01097645 45.63591812 10.45465572 43.79775051 12 42 C9.11200039 42 6.91680904 42.4546264 4.125 43.125 C1.12532238 43.72580626 -0.78122662 44.03889304 -3.8125 43.5 C-7.72931572 40.81418351 -10.4800864 37.5597408 -12 33 C-12.84971715 23.19342827 -12.06165377 14.32510714 -5.953125 6.31640625 C-4.03225871 4.13329403 -2.07320837 2.03798396 0 0 Z " fill="#FDB09D" transform="translate(134,257)"/>
<path d="M0 0 C4.62 0 9.24 0 14 0 C14 3.3 14 6.6 14 10 C17.96 10 21.92 10 26 10 C26 14.62 26 19.24 26 24 C23.45345703 24.07347656 23.45345703 24.07347656 20.85546875 24.1484375 C18.63279577 24.22346444 16.41014034 24.2990123 14.1875 24.375 C13.06794922 24.4059375 11.94839844 24.436875 10.79492188 24.46875 C9.72177734 24.50742187 8.64863281 24.54609375 7.54296875 24.5859375 C6.0583313 24.63306885 6.0583313 24.63306885 4.54370117 24.68115234 C1.75924906 24.83773433 1.75924906 24.83773433 -1 27 C-1 27.99 -1 28.98 -1 30 C1.72171438 31.36085719 4.08782141 31.22701682 7.125 31.375 C14.14355565 31.88628551 19.34091685 32.69546127 24.8125 37.4375 C25.534375 38.283125 26.25625 39.12875 27 40 C27.53238281 40.60199219 28.06476563 41.20398438 28.61328125 41.82421875 C31.17504111 45.84365605 30.48096949 50.40406931 30 55 C28.00109987 60.99670039 24.14121565 64.11527061 18.8125 67.3125 C17 68 17 68 14 68 C14 71.63 14 75.26 14 79 C9.38 79 4.76 79 0 79 C0 75.7 0 72.4 0 69 C-4.95 69 -9.9 69 -15 69 C-15 64.05 -15 59.1 -15 54 C-12.12861328 53.90912109 -12.12861328 53.90912109 -9.19921875 53.81640625 C-6.69530461 53.73200465 -4.19139877 53.64735646 -1.6875 53.5625 C-0.42486328 53.52318359 0.83777344 53.48386719 2.13867188 53.44335938 C3.34716797 53.40146484 4.55566406 53.35957031 5.80078125 53.31640625 C7.47394409 53.26141968 7.47394409 53.26141968 9.1809082 53.20532227 C12.07873571 53.11068791 12.07873571 53.11068791 15 52 C14.65213292 50.02463255 14.65213292 50.02463255 14 48 C11.15109411 46.57554706 8.55108965 46.80651835 5.375 46.6875 C-1.42338091 46.22824397 -6.59850781 45.34166695 -11.5546875 40.47265625 C-15.93644544 35.41011671 -16.57452094 31.76729917 -16.55078125 25.19140625 C-15.60795268 19.72834994 -12.19617136 16.41513217 -8 13 C-4.88600735 11.08091151 -3.87317964 11 0 11 C0 7.37 0 3.74 0 0 Z " fill="#FBFEFC" transform="translate(291,267)"/>
<path d="M0 0 C0.43699219 1.32451172 0.43699219 1.32451172 0.8828125 2.67578125 C6.21611854 19.69712451 6.21611854 19.69712451 18 32 C18 32.66 18 33.32 18 34 C25.11416637 27.33046903 31.03032857 19.93176072 35 11 C39.8274799 12.41292095 43.7162359 14.42974154 48 17 C45.06356809 26.76900762 38.92443416 34.65462759 32 42 C36.46209815 47.04946563 41.82938419 50.22251625 47.5625 53.6875 C48.50802734 54.26822266 49.45355469 54.84894531 50.42773438 55.44726562 C52.94173147 56.98409071 55.45386044 58.51702421 58 60 C58.58418701 60.38051514 59.16837402 60.76103027 59.77026367 61.15307617 C63.25433941 62.47643747 66.80335203 62.36014962 70.484375 62.4140625 C71.29996887 62.43342865 72.11556274 62.4527948 72.95587158 62.4727478 C75.55380892 62.53239575 78.15179093 62.57886942 80.75 62.625 C82.51434194 62.66319342 84.27866551 62.70224595 86.04296875 62.7421875 C90.36182946 62.83808505 94.68077744 62.92217047 99 63 C99 63.33 99 63.66 99 64 C91.28960678 64.31859641 83.57902643 64.59045911 75.86513329 64.8056488 C72.281576 64.90702383 68.69992247 65.02337388 65.11816406 65.17626953 C35.13665828 66.43537132 35.13665828 66.43537132 24 57 C22.91436475 56.21852188 21.82062201 55.44819655 20.71948242 54.6887207 C4.27030105 43.25692508 -8.85223986 26.65508417 -14 7 C-14.125 4.125 -14.125 4.125 -14 2 C-12.60582227 1.65980848 -11.20955342 1.32818221 -9.8125 1 C-8.64654297 0.7215625 -8.64654297 0.7215625 -7.45703125 0.4375 C-4.92009775 -0.01422743 -2.57120097 -0.07307143 0 0 Z " fill="#FCB19E" transform="translate(197,175)"/>
<path d="M0 0 C3.59309034 1.19769678 4.42093253 2.4676789 6.6875 5.4375 C7.62142578 6.64212891 7.62142578 6.64212891 8.57421875 7.87109375 C10 10 10 10 10 12 C7.640577 13.91419171 5.26940597 15.71836123 2.8125 17.5 C1.33282641 18.59045831 -0.14633369 19.6816137 -1.625 20.7734375 C-2.36621094 21.31838867 -3.10742188 21.86333984 -3.87109375 22.42480469 C-6.83910352 24.62085963 -9.76707687 26.8662494 -12.6875 29.125 C-13.47398926 29.73118164 -13.47398926 29.73118164 -14.27636719 30.34960938 C-16.92349861 32.39088901 -19.56511131 34.43915255 -22.203125 36.4921875 C-27.86591538 40.89049621 -33.57543217 45.22076161 -39.375 49.4375 C-40.21309204 50.0572168 -40.21309204 50.0572168 -41.06811523 50.68945312 C-50.03144595 57.13655086 -58.29212658 58.12157567 -69 57 C-72.7802491 55.8541732 -75.76468645 54.24307055 -79 52 C-79.94746094 51.41798828 -79.94746094 51.41798828 -80.9140625 50.82421875 C-87.69460874 46.00017374 -92.08398828 36.52859727 -93.6953125 28.5625 C-93.79585938 27.716875 -93.89640625 26.87125 -94 26 C-90.97033024 27.35608182 -87.95323997 28.73824853 -84.9375 30.125 C-84.08994141 30.50398438 -83.24238281 30.88296875 -82.36914062 31.2734375 C-77.41096939 33.57065969 -73.37887613 36.02440833 -69.37719727 39.76123047 C-66.15677842 42.65795183 -62.78230497 42.39909081 -58.63671875 42.328125 C-54.196544 41.77556992 -51.47823412 39.69654039 -48 37 C-47.03320312 36.27167969 -46.06640625 35.54335938 -45.0703125 34.79296875 C-42.26222587 32.6638779 -39.48148863 30.50134861 -36.70556641 28.33056641 C-33.98172213 26.20560916 -31.24030712 24.10365336 -28.5 22 C-27.42179024 21.1706831 -26.34366547 20.3412557 -25.265625 19.51171875 C-23.04738316 17.80532754 -20.8285648 16.09968943 -18.609375 14.39453125 C-18.05169434 13.96567627 -17.49401367 13.53682129 -16.91943359 13.0949707 C-15.8191936 12.24975855 -14.71797834 11.40581419 -13.61572266 10.56323242 C-11.14342023 8.66977173 -8.69904702 6.7536869 -6.2890625 4.78125 C-5.49242187 4.1315625 -4.69578125 3.481875 -3.875 2.8125 C-3.19179688 2.24144531 -2.50859375 1.67039062 -1.8046875 1.08203125 C-1.20914063 0.72496094 -0.61359375 0.36789062 0 0 Z " fill="#FFB09E" transform="translate(400,376)"/>
</svg>
